<?xml version="1.0" encoding="utf-8"?>
<!-- Generator: Adobe Illustrator 27.0.1, SVG Export Plug-In . SVG Version: 6.00 Build 0)  -->
<svg width="100%" height="100%" version="1.1" id="Layer_1" xmlns="http://www.w3.org/2000/svg" xmlns:xlink="http://www.w3.org/1999/xlink" x="0px" y="0px"
	 viewBox="0 0 302 302" style="enable-background:new 0 0 302 302;" xml:space="preserve">
<style type="text/css">
	.st0{fill:#FFFFFF;}
	.st1{fill:#023548;}
	.st2{fill-rule:evenodd;clip-rule:evenodd;fill:#023548;}
</style>
<g>
	<circle class="st0" cx="151" cy="151" r="140"/>
	<path class="st1" d="M151,22c34.5,0,66.9,13.4,91.2,37.8C266.6,84.1,280,116.5,280,151s-13.4,66.9-37.8,91.2
		C217.9,266.6,185.5,280,151,280s-66.9-13.4-91.2-37.8C35.4,217.9,22,185.5,22,151s13.4-66.9,37.8-91.2C84.1,35.4,116.5,22,151,22
		 M151,0C67.6,0,0,67.6,0,151s67.6,151,151,151s151-67.6,151-151S234.4,0,151,0L151,0z"/>
</g>
<g>
	<g>
		<path class="st2" d="M95,227h119V83h-6.3v137.7H95V227z M201.5,76.7H88.8v137.7h112.7V76.7z M195.2,83H95v125.2h100.2V83z
			 M182.7,183.1h-75.1v6.3h75.1V183.1z M182.7,164.4h-75.1v6.3h75.1V164.4z M182.7,145.6h-75.1v6.3h75.1V145.6z"/>
	</g>
	<g>
		<path class="st1" d="M124.1,116.4l6.6,2c-0.4,1.8-1.1,3.4-2.1,4.6c-0.9,1.2-2.1,2.2-3.5,2.8c-1.4,0.6-3.2,0.9-5.4,0.9
			c-2.6,0-4.8-0.4-6.5-1.2c-1.7-0.8-3.1-2.1-4.3-4c-1.2-1.9-1.8-4.4-1.8-7.4c0-4,1.1-7.1,3.2-9.3c2.1-2.2,5.2-3.2,9.1-3.2
			c3.1,0,5.5,0.6,7.2,1.9c1.8,1.2,3.1,3.1,3.9,5.7l-6.6,1.5c-0.2-0.7-0.5-1.3-0.7-1.6c-0.4-0.6-0.9-1-1.5-1.3
			c-0.6-0.3-1.3-0.5-2-0.5c-1.7,0-3,0.7-3.9,2.1c-0.7,1-1,2.6-1,4.8c0,2.7,0.4,4.5,1.2,5.5c0.8,1,2,1.5,3.4,1.5
			c1.4,0,2.5-0.4,3.3-1.2C123.2,119.1,123.7,118,124.1,116.4z"/>
		<path class="st1" d="M134.2,102.1h12.5c2.7,0,4.8,0.6,6.1,1.9c1.4,1.3,2,3.1,2,5.5c0,2.5-0.7,4.4-2.2,5.7
			c-1.5,1.4-3.7,2.1-6.8,2.1h-4.1v9h-7.5V102.1z M141.8,112.4h1.8c1.4,0,2.5-0.3,3-0.8c0.6-0.5,0.9-1.1,0.9-1.9
			c0-0.8-0.3-1.4-0.8-1.9c-0.5-0.5-1.5-0.8-2.9-0.8h-2.1V112.4z"/>
		<path class="st1" d="M158.8,102.1h7.5v8.5h8.2v-8.5h7.5v24.3h-7.5v-9.8h-8.2v9.8h-7.5V102.1z"/>
	</g>
</g>
<g>
</g>
</svg>
