<?xml version="1.0" encoding="utf-8"?>
<!-- Generator: Adobe Illustrator 27.0.1, SVG Export Plug-In . SVG Version: 6.00 Build 0)  -->
<svg width="100%" height="100%" version="1.1" id="Layer_1" xmlns="http://www.w3.org/2000/svg" xmlns:xlink="http://www.w3.org/1999/xlink" x="0px" y="0px"
	 viewBox="0 0 20 20" style="enable-background:new 0 0 20 20;" xml:space="preserve">
<style type="text/css">
	.st0{fill:#D0021B;}
</style>
<path class="st0" d="M10,0c5.5,0,10,4.5,10,10c0,5.5-4.5,10-10,10C4.5,20,0,15.5,0,10C0,4.5,4.5,0,10,0z M10,8.9L7.3,6.2
	C7.1,6.1,6.9,6,6.7,6C6.3,6,6,6.3,6,6.7c0,0.2,0.1,0.4,0.2,0.5L8.9,10l-2.7,2.7C6.1,12.9,6,13.1,6,13.3C6,13.7,6.3,14,6.7,14
	c0.2,0,0.4-0.1,0.5-0.2l2.7-2.7l2.7,2.7c0.1,0.1,0.3,0.2,0.5,0.2c0.4,0,0.8-0.3,0.8-0.8c0-0.2-0.1-0.4-0.2-0.5L11.1,10l2.7-2.7
	C13.9,7.1,14,6.9,14,6.7C14,6.3,13.6,6,13.2,6c-0.2,0-0.4,0.1-0.5,0.2L10,8.9z"/>
</svg>
