<?xml version="1.0" encoding="utf-8"?>
<!-- Generator: Adobe Illustrator 27.0.1, SVG Export Plug-In . SVG Version: 6.00 Build 0)  -->
<svg version="1.1" id="Layer_1" xmlns="http://www.w3.org/2000/svg" xmlns:xlink="http://www.w3.org/1999/xlink" x="0px" y="0px"
	 viewBox="0 0 302 302" style="enable-background:new 0 0 302 302;" xml:space="preserve">
<style type="text/css">
	.st0{fill:#FFFFFF;}
	.st1{fill:#023548;}
</style>
<g>
	<circle class="st0" cx="151" cy="151" r="140"/>
	<path class="st1" d="M151,22c34.5,0,66.9,13.4,91.2,37.8C266.6,84.1,280,116.5,280,151s-13.4,66.9-37.8,91.2S185.5,280,151,280
		s-66.9-13.4-91.2-37.8S22,185.5,22,151s13.4-66.9,37.8-91.2C84.1,35.4,116.5,22,151,22 M151,0C67.6,0,0,67.6,0,151
		s67.6,151,151,151s151-67.6,151-151S234.4,0,151,0L151,0z"/>
</g>
<path class="st1" d="M197.6,158.9l-40.3-32.7H238C237.9,126.2,197.6,158.9,197.6,158.9z M197.6,165.2l-40.4-32.7v52H238v-52
	L197.6,165.2z"/>
<path class="st1" d="M144.1,106.4c0-5.4-4.3-9.8-9.8-9.8H75.6c-5.4,0-9.8,4.3-9.8,9.8v97.8c0,5.4,4.3,9.8,9.8,9.8h58.7
	c5.4,0,9.8-4.3,9.8-9.8V106.4z M97.6,106.4h14.7c1.4,0,2.4,1.1,2.4,2.4c0,1.4-1.1,2.4-2.4,2.4H97.6c-1.3,0-2.4-1.1-2.4-2.4
	C95.1,107.5,96.2,106.4,97.6,106.4z M104.9,204.2c-2.7,0-4.9-2.2-4.9-4.9s2.2-4.9,4.9-4.9c2.7,0,4.9,2.2,4.9,4.9
	S107.6,204.2,104.9,204.2z M134.3,189.5H75.6V121h58.7V189.5z"/>
</svg>
