<?xml version="1.0" encoding="utf-8"?>
<!-- Generator: Adobe Illustrator 27.0.1, SVG Export Plug-In . SVG Version: 6.00 Build 0)  -->
<svg version="1.1" id="Layer_1" xmlns="http://www.w3.org/2000/svg" xmlns:xlink="http://www.w3.org/1999/xlink" x="0px" y="0px"
	 viewBox="0 0 302 302" style="enable-background:new 0 0 302 302;" xml:space="preserve">
<style type="text/css">
	.st0{fill:#FFFFFF;}
	.st1{fill:#023548;}
</style>
<g>
	<circle class="st0" cx="151" cy="151" r="140"/>
	<path class="st1" d="M151,22c34.5,0,66.9,13.4,91.2,37.8C266.6,84.1,280,116.5,280,151s-13.4,66.9-37.8,91.2S185.5,280,151,280
		s-66.9-13.4-91.2-37.8S22,185.5,22,151s13.4-66.9,37.8-91.2C84.1,35.4,116.5,22,151,22 M151,0C67.6,0,0,67.6,0,151
		s67.6,151,151,151s151-67.6,151-151S234.4,0,151,0L151,0z"/>
</g>
<g>
</g>
<path class="st1" d="M151,157.2L80.4,100h141.3C221.6,100,151,157.2,151,157.2z M151,168.3L80.3,111v91h141.4v-91L151,168.3z"/>
</svg>
