<?xml version="1.0" encoding="utf-8"?>
<!-- Generator: Adobe Illustrator 27.0.1, SVG Export Plug-In . SVG Version: 6.00 Build 0)  -->
<svg version="1.1" id="Layer_1" xmlns="http://www.w3.org/2000/svg" xmlns:xlink="http://www.w3.org/1999/xlink" x="0px" y="0px"
	 viewBox="0 0 302 302" style="enable-background:new 0 0 302 302;" xml:space="preserve">
<style type="text/css">
	.st0{fill:#FFFFFF;}
	.st1{fill:#023548;}
</style>
<g>
	<circle class="st0" cx="151" cy="151" r="140"/>
	<path class="st1" d="M151,22c34.5,0,66.9,13.4,91.2,37.8C266.6,84.1,280,116.5,280,151s-13.4,66.9-37.8,91.2
		C217.9,266.6,185.5,280,151,280s-66.9-13.4-91.2-37.8C35.4,217.9,22,185.5,22,151s13.4-66.9,37.8-91.2C84.1,35.4,116.5,22,151,22
		 M151,0C67.6,0,0,67.6,0,151s67.6,151,151,151s151-67.6,151-151S234.4,0,151,0L151,0z"/>
</g>
<g>
</g>
<path class="st1" d="M207.7,80.2c0-7.8-6.3-14.2-14.2-14.2h-85c-7.8,0-14.2,6.3-14.2,14.2v141.7c0,7.8,6.3,14.2,14.2,14.2h85
	c7.8,0,14.2-6.3,14.2-14.2V80.2z M140.4,80.2h21.3c2,0,3.5,1.6,3.5,3.5c0,2-1.6,3.5-3.5,3.5h-21.3c-1.9,0-3.5-1.6-3.5-3.5
	C136.8,81.8,138.4,80.2,140.4,80.2z M151,221.8c-3.9,0-7.1-3.2-7.1-7.1s3.2-7.1,7.1-7.1c3.9,0,7.1,3.2,7.1,7.1
	S154.9,221.8,151,221.8z M193.5,200.6h-85v-99.3h85V200.6z"/>
</svg>
